<svg t="1723804977985" class="icon" viewBox="0 0 1024 1024" version="1.1" xmlns="http://www.w3.org/2000/svg"
     p-id="93577" width="96" height="96">
    <path d="M419.609023 0.499951c44.995606 0.09999 87.191485 22.197832 112.888975 59.094229 25.897471 37.096377 32.396836 84.391759 17.498291 127.087589h192.381213c24.497608 0 47.895323 9.799043 65.193634 27.197344 17.298311 17.498291 26.997364 41.095987 26.997363 65.693585v194.081047c57.494385-20.597988 121.788107-0.899912 157.784592 48.395274 36.296455 49.495166 36.296455 116.788595 0 166.283761-36.096475 49.295186-100.290206 68.993262-157.784592 48.395274v194.081047c0.09999 24.597598-9.599063 48.295284-26.897373 65.893565-17.19832 17.498291-40.696026 27.297334-65.293624 27.297334h-191.981252c20.398008-57.794356 0.899912-122.188068-48.095303-158.984474-48.895225-36.496436-115.888683-36.496436-164.783908 0-48.995215 36.796407-68.493311 101.190118-48.095303 158.984474H96.740553c-24.497608 0-47.995313-9.899033-65.293624-27.297334-17.298311-17.498291-26.997364-41.195977-26.897373-65.893565V737.527976c57.394395 20.298018 121.288155 0.499951 157.084659-48.795235 35.996485-49.295186 35.996485-116.188653 0-165.58383-35.796504-49.195196-99.690265-69.093253-157.084659-48.795235V280.47261c-0.299971-51.09501 40.896006-92.790938 91.991016-93.090909h192.681184c-14.998535-42.69583-8.49917-89.991212 17.498291-127.087589 25.797481-36.896397 67.99336-58.894249 112.988966-58.894249V0.299971l-0.09999 0.19998z"
          p-id="93578"></path>
</svg>