<svg t="1723805830682" class="icon" viewBox="0 0 1024 1024" version="1.1" xmlns="http://www.w3.org/2000/svg"
     p-id="95863" width="96" height="96">
    <path d="M905.309091 628.363636c-27.927273 0-46.545455 18.618182-46.545455 46.545455v223.418182H165.236364V125.672727h200.145454c27.927273 0 46.545455-18.618182 46.545455-46.545454s-18.618182-46.545455-46.545455-46.545455H118.690909c-27.927273 0-46.545455 18.618182-46.545454 46.545455v865.745454c0 27.927273 18.618182 46.545455 46.545454 46.545455h786.618182c27.927273 0 46.545455-18.618182 46.545454-46.545455v-269.963636c0-27.927273-18.618182-46.545455-46.545454-46.545455z"
          fill="#2c2c2c" p-id="95864" data-spm-anchor-id="a313x.search_index.0.i35.a94c3a81No4fxR"
          class="selected"></path>
    <path d="M556.218182 558.545455h349.090909v-93.09091h-269.963636l293.236363-269.963636-65.163636-65.163636-307.2 283.927272V116.363636h-93.090909V558.545455h4.654545z"
          fill="#2c2c2c" p-id="95865" data-spm-anchor-id="a313x.search_index.0.i34.a94c3a81No4fxR"
          class="selected"></path>
</svg>