 <svg  version="1.0" xmlns="http://www.w3.org/2000/svg"  width="900.000000pt" height="300.000000pt" viewBox="0 0 900.000000 300.000000"  preserveAspectRatio="xMidYMid meet">  <g transform="translate(0.000000,300.000000) scale(0.100000,-0.100000)" fill="#fd4c5d" stroke="none"> <path d="M7453 2497 c-2 -4 2 -20 10 -35 8 -15 27 -51 42 -81 l27 -53 246 3 c201 3 246 2 250 -10 2 -7 1 -16 -4 -20 -18 -13 -64 -88 -64 -104 0 -20 3 -20 -186 -17 l-151 2 -59 -44 c-32 -25 -90 -65 -129 -90 -53 -35 -75 -57 -91 -90 -65 -133 -76 -156 -94 -183 -36 -56 -51 -87 -46 -92 3 -4 169 -6 368 -5 360 1 363 1 380 22 10 12 18 28 18 36 0 7 9 28 20 46 23 38 26 64 8 70 -16 5 -330 -8 -415 -17 -63 -7 -63 -6 -63 19 0 14 4 26 8 26 5 0 14 10 20 23 7 12 23 40 36 62 l24 39 160 -3 160 -3 54 39 c29 21 86 61 127 88 48 33 78 60 86 80 20 49 24 58 48 100 61 104 96 176 92 188 -4 9 -104 12 -441 12 -240 0 -438 -3 -441 -8z m691 -103 c27 -10 19 -62 -15 -105 -37 -47 -46 -49 -41 -6 3 26 -2 36 -27 55 -52 38 -39 55 46 61 12 0 28 -2 37 -5z m-679 -487 c-4 -15 2 -35 19 -60 43 -62 39 -72 -24 -73 -93 -1 -104 29 -39 107 22 27 43 49 45 49 2 0 2 -10 -1 -23z"/> <path d="M6500 2473 c0 -12 4 -24 9 -28 5 -3 22 -27 38 -53 l28 -47 0 -335 0 -335 125 -3 125 -2 28 47 c15 27 56 89 92 138 35 50 94 133 130 185 36 52 84 120 106 150 22 30 55 78 74 105 19 28 42 61 52 75 9 14 30 40 45 58 15 18 28 41 28 52 0 17 -7 18 -117 13 -88 -4 -121 -9 -128 -20 -5 -8 -29 -42 -52 -76 -23 -34 -68 -100 -99 -147 -62 -91 -73 -108 -111 -182 -16 -33 -30 -48 -44 -48 -23 0 -25 -15 -3 -24 9 -4 32 3 51 14 66 39 70 19 16 -71 -21 -33 -43 -70 -49 -81 -7 -11 -27 -35 -45 -54 -40 -42 -101 -48 -119 -13 -8 13 -11 99 -11 247 0 125 1 253 0 285 0 63 10 71 39 30 14 -21 21 -53 26 -128 6 -94 29 -195 44 -195 24 0 64 431 43 453 -5 5 -79 9 -165 10 -155 2 -156 2 -156 -20z"/> <path d="M1587 2114 c-10 -11 -9 -52 2 -59 6 -3 26 -38 46 -77 20 -40 42 -79 50 -88 7 -8 16 -27 20 -41 6 -22 -3 -38 -52 -95 -97 -115 -137 -164 -155 -192 -10 -15 -32 -43 -51 -62 -18 -19 -46 -54 -61 -78 -16 -24 -35 -46 -42 -50 -7 -4 -27 -28 -46 -53 -32 -46 -99 -129 -141 -179 -12 -14 -51 -64 -87 -111 -66 -86 -119 -153 -176 -218 -29 -35 -109 -135 -149 -189 -11 -15 -39 -45 -61 -67 -23 -22 -44 -49 -45 -60 -4 -20 2 -20 1009 -23 l1012 -2 0 36 c0 20 -7 63 -16 96 -8 33 -13 72 -9 87 3 14 -2 64 -10 111 -8 47 -12 105 -9 130 3 25 1 65 -6 89 -6 24 -13 85 -15 135 -2 50 -9 107 -14 126 -6 19 -11 62 -11 95 0 33 -7 95 -15 138 -8 43 -15 104 -15 135 -1 32 -6 87 -13 123 -8 38 -10 77 -5 94 4 16 3 46 -2 67 -6 20 -11 64 -11 97 -1 34 -6 64 -11 67 -6 4 -202 7 -437 8 -234 1 -435 5 -446 10 -11 4 -24 4 -28 0z m756 -101 c41 -4 61 -11 67 -24 14 -25 88 -690 96 -864 3 -49 9 -103 14 -120 4 -16 11 -77 15 -135 4 -58 11 -125 15 -150 11 -59 2 -130 -17 -130 -7 0 -16 -6 -19 -13 -3 -9 -21 -14 -52 -13 -26 0 -159 -1 -297 -3 -599 -6 -1227 0 -1271 11 -24 7 -44 16 -44 20 0 22 62 108 195 268 39 47 97 121 130 165 33 44 102 132 155 195 53 63 103 126 112 140 9 14 45 59 82 100 36 41 66 80 66 86 0 6 10 19 21 30 33 29 126 156 139 189 7 17 17 40 23 53 8 17 6 37 -11 86 -25 73 -27 87 -10 104 13 13 479 17 591 5z"/> <path d="M2043 1750 c-12 -5 -31 -18 -42 -29 -12 -12 -25 -21 -30 -21 -6 0 -50 -51 -100 -112 -50 -62 -100 -124 -111 -138 -11 -14 -38 -47 -60 -75 -22 -27 -49 -61 -60 -75 -11 -14 -42 -52 -67 -85 -26 -33 -70 -87 -98 -120 -28 -33 -67 -85 -85 -115 -19 -30 -37 -57 -41 -60 -22 -18 -44 -106 -29 -115 17 -10 208 205 296 333 20 28 40 52 45 52 4 0 22 21 39 46 17 25 42 58 55 72 33 36 107 130 121 154 6 11 23 31 36 46 40 44 112 144 133 186 11 21 28 41 37 44 10 2 15 8 12 13 -6 11 -22 11 -51 -1z"/> <path d="M2124 1693 c-4 -16 -11 -33 -16 -40 -6 -7 -8 -36 -5 -65 3 -29 10 -107 16 -173 6 -66 15 -138 20 -160 6 -22 11 -65 11 -97 0 -31 7 -91 15 -133 8 -42 12 -89 9 -104 -4 -18 2 -44 15 -71 26 -55 17 -63 -64 -52 -107 13 -664 6 -714 -10 l-44 -13 26 -30 25 -30 354 0 c393 0 367 -4 446 71 l37 35 -2 88 c-1 48 -10 155 -18 237 -9 82 -23 210 -30 284 -18 168 -27 216 -48 258 -21 39 -25 40 -33 5z"/> <path d="M3087 2114 c-14 -14 -7 -44 22 -86 16 -24 32 -54 36 -68 4 -14 19 -42 31 -62 13 -21 24 -45 24 -53 0 -9 6 -18 14 -21 8 -3 18 -19 21 -35 5 -22 -1 -42 -29 -88 -20 -32 -52 -92 -71 -132 -19 -41 -39 -81 -44 -89 -5 -8 -80 -157 -166 -330 -86 -173 -162 -323 -168 -332 -9 -14 -5 -26 21 -63 18 -25 32 -48 32 -51 0 -5 82 -182 99 -214 7 -13 76 -15 527 -15 l519 0 22 45 c12 25 33 70 47 100 31 65 41 82 80 133 23 31 26 40 15 53 -10 12 -24 14 -60 9 -26 -4 -172 -7 -325 -7 -257 0 -463 -10 -485 -24 -17 -10 23 -53 54 -59 18 -3 163 -7 323 -9 160 -2 296 -6 303 -10 15 -10 14 -52 -4 -86 -31 -59 -38 -60 -480 -60 -493 0 -466 -7 -541 135 -31 60 -35 77 -31 120 4 49 31 113 87 210 16 28 35 66 41 85 7 19 34 74 60 123 26 49 51 98 55 110 4 12 14 33 24 47 19 27 60 108 80 155 7 17 27 59 45 95 51 101 53 165 8 246 -20 35 -27 102 -13 119 11 13 94 15 649 15 350 0 646 -3 659 -6 33 -9 29 -57 -10 -122 -24 -38 -41 -55 -60 -59 -16 -3 -28 -9 -28 -13 0 -4 -12 -11 -27 -15 -16 -3 -35 -13 -43 -20 -8 -7 -44 -23 -80 -35 -36 -12 -90 -33 -120 -47 -69 -31 -101 -24 -111 26 -4 18 -14 40 -23 49 -15 15 -16 14 -16 -14 0 -21 -10 -39 -30 -59 -16 -16 -30 -34 -30 -39 0 -6 -25 -49 -55 -96 -30 -47 -55 -91 -55 -98 0 -27 32 -24 75 7 24 17 81 49 127 72 46 22 97 49 113 59 17 10 39 19 50 19 12 1 25 5 30 9 6 5 30 15 55 22 25 7 56 19 70 26 67 34 140 64 155 64 18 0 75 55 75 72 0 16 78 172 105 208 26 36 33 76 13 82 -6 2 -43 0 -82 -4 -85 -11 -1523 -5 -1551 6 -11 4 -24 4 -28 0z"/> <path d="M4908 2112 c-30 -6 -29 -33 2 -72 16 -21 30 -42 30 -48 0 -5 7 -15 15 -22 8 -7 15 -20 15 -29 0 -9 20 -52 45 -95 l45 -79 -28 -41 c-28 -42 -44 -73 -62 -116 -5 -14 -14 -32 -18 -40 -25 -44 -85 -164 -102 -202 -6 -13 -14 -31 -20 -40 -24 -43 -31 -56 -51 -98 -25 -54 -56 -116 -75 -150 -7 -14 -27 -54 -44 -90 -32 -67 -38 -78 -77 -142 l-23 -38 19 -37 c11 -21 36 -72 56 -113 20 -41 48 -100 63 -130 l27 -55 484 0 c420 0 485 2 492 15 4 8 24 51 45 95 20 43 54 108 76 143 48 78 41 97 -31 88 -25 -3 -187 -8 -360 -12 -173 -3 -324 -10 -337 -14 -12 -5 -32 -6 -44 -3 -32 9 -22 -16 18 -43 29 -20 49 -22 224 -27 106 -3 235 -5 287 -5 51 0 98 -5 104 -11 7 -7 5 -23 -8 -50 -29 -64 -54 -82 -127 -87 -77 -6 -95 -7 -133 -5 -16 1 -149 1 -294 1 -292 0 -325 5 -358 53 -43 63 -83 153 -83 187 0 30 73 196 147 335 23 43 147 294 166 335 9 19 25 51 35 70 40 71 80 176 86 223 4 37 1 59 -19 103 -33 75 -44 119 -34 135 7 12 106 15 566 17 307 2 591 0 631 -3 65 -6 72 -9 72 -28 -1 -30 -33 -99 -55 -117 -15 -12 -67 -15 -309 -17 -474 -2 -416 4 -479 -48 -49 -40 -69 -67 -124 -170 -31 -59 -48 -133 -39 -170 8 -33 18 -31 36 5 8 16 40 69 70 117 30 48 62 111 72 138 11 32 22 48 30 45 7 -2 192 -6 410 -8 l397 -3 15 30 c9 16 16 36 17 43 0 7 13 38 29 68 50 97 70 134 84 159 8 13 12 29 10 35 -3 8 -204 10 -722 8 -395 -2 -747 1 -783 5 -35 5 -71 7 -81 5z"/> <path d="M3776 1852 c-46 -4 -111 -46 -148 -94 -14 -19 -70 -121 -124 -228 -53 -107 -103 -202 -110 -210 -6 -8 -15 -29 -19 -47 -3 -17 -12 -37 -20 -43 -7 -6 -16 -23 -20 -38 -4 -15 -17 -40 -29 -57 -26 -35 -50 -86 -96 -204 -26 -65 -31 -89 -24 -109 11 -31 34 -41 34 -15 0 10 10 31 23 46 35 44 55 82 223 417 87 173 168 331 179 350 12 19 32 63 45 98 24 61 25 62 55 55 16 -5 80 -7 142 -7 96 2 116 5 138 22 l26 21 -25 16 c-14 9 -42 18 -63 21 -75 7 -149 10 -187 6z"/> <path d="M5925 1460 c-33 -4 -150 -8 -260 -9 -251 -2 -338 -22 -273 -65 18 -12 66 -16 222 -19 174 -3 201 -6 212 -21 14 -20 4 -69 -21 -96 -28 -31 -93 -38 -339 -39 l-239 0 -40 -28 c-50 -35 -90 -88 -132 -178 -51 -109 -73 -213 -42 -203 29 10 175 258 176 300 1 10 9 21 19 25 9 5 154 6 322 3 168 -3 310 -4 317 -2 9 3 113 200 113 216 0 3 14 26 31 51 30 44 33 77 7 74 -7 -1 -40 -5 -73 -9z"/> </g> </svg> 