<svg t="1723804927737" class="icon" viewBox="0 0 1024 1024" version="1.1" xmlns="http://www.w3.org/2000/svg"
     p-id="93375" width="96" height="96">
    <path d="M643.413333 183.253333c0.042667 0-0.170667 0.426667-0.810666 1.152 0.426667-0.810667 0.768-1.152 0.810666-1.152z m-20.565333 14.378667c-24.576-12.458667-63.530667-22.485333-110.848-22.485333-47.36 0-86.314667 10.026667-110.848 22.485333 24.533333 12.373333 63.530667 22.442667 110.848 22.442667 47.36 0 86.272-10.026667 110.848-22.442667zM380.586667 183.253333c0.042667 0 0.384 0.341333 0.810666 1.152-0.64-0.725333-0.853333-1.109333-0.853333-1.152zM640 308.906667v-21.461334c-35.669333 14.08-79.957333 22.442667-128 22.442667s-92.330667-8.362667-128-22.442667v45.397334a37.461333 37.461333 0 0 0 1.194667 0.810666c11.349333 7.424 44.501333 21.162667 126.805333 21.162667s115.456-13.738667 126.805333-21.162667A34.432 34.432 0 0 0 640 332.8v-21.845333-2.048z m80.128 59.392a77.482667 77.482667 0 0 1-2.56 5.461333c-6.528 12.928-17.408 25.472-33.706667 36.138667-31.317333 20.522667-83.498667 34.730667-171.861333 34.730666-88.362667 0-140.544-14.208-171.861333-34.730666-16.298667-10.666667-27.178667-23.210667-33.749334-36.138667a72.832 72.832 0 0 1-6.912-20.693333L170.666667 406.528v5.717333l341.333333 119.765334 341.333333-119.765334V409.6l-133.205333-41.258667zM321.706667 343.893333H341.333333h-19.541333zM299.861333 209.493333C299.093333 212.906667 298.666667 216.448 298.666667 220.074667v36.778666L112.341333 334.165333a44.928 44.928 0 0 0-27.008 41.813334v369.834666c0 18.858667 11.178667 35.712 27.989334 42.154667l384 147.968a40.661333 40.661333 0 0 0 29.354666 0l384-147.968c16.810667-6.442667 27.989333-23.296 27.989334-42.154667v-300.586666-69.290667c0-19.925333-12.458667-37.461333-30.634667-43.093333L725.333333 276.309333V220.074667c0-3.626667-0.426667-7.168-1.194666-10.538667 0.768-3.925333 1.194667-7.893333 1.194666-11.946667C725.333333 135.637333 629.76 85.333333 512 85.333333S298.666667 135.594667 298.666667 197.632c0 4.010667 0.426667 7.978667 1.194666 11.904zM170.666667 714.410667v-207.445334l298.666666 104.789334v217.728l-298.666666-115.072z m384 115.072l298.666666-115.072v-207.488l-298.666666 104.832v217.728z"
          fill="#2c2c2c" p-id="93376" data-spm-anchor-id="a313x.search_index.0.i23.a94c3a81No4fxR"
          class="selected"></path>
</svg>