<svg t="1723209382723" class="icon" viewBox="0 0 1024 1024" version="1.1" xmlns="http://www.w3.org/2000/svg" p-id="5437"
     width="32" height="32">
    <path d="M512.512 96c31.317333 0.384 62.506667 3.968 93.098667 10.794667a32 32 0 0 1 24.832 27.690666l7.253333 65.152a59.050667 59.050667 0 0 0 82.218667 47.616l59.733333-26.24a32 32 0 0 1 36.266667 7.424 417.834667 417.834667 0 0 1 94.08 161.792 32 32 0 0 1-11.605334 35.242667l-52.949333 39.04a58.88 58.88 0 0 0 0 94.976l53.034667 39.04a32 32 0 0 1 11.605333 35.242667 418.090667 418.090667 0 0 1-94.037333 161.792 32 32 0 0 1-36.224 7.466666l-59.989334-26.282666a58.922667 58.922667 0 0 0-82.176 47.488l-7.253333 65.109333a32 32 0 0 1-24.362667 27.648 406.101333 406.101333 0 0 1-187.989333 0 32 32 0 0 1-24.405333-27.648l-7.210667-65.024a58.965333 58.965333 0 0 0-82.133333-47.36l-59.989334 26.282667a32 32 0 0 1-36.266666-7.466667 418.048 418.048 0 0 1-93.994667-161.962667 32 32 0 0 1 11.605333-35.242666l53.034667-39.082667a58.88 58.88 0 0 0 0-94.976l-53.034667-38.997333a32 32 0 0 1-11.605333-35.242667 417.834667 417.834667 0 0 1 94.08-161.792 32 32 0 0 1 36.266667-7.424l59.733333 26.24a59.178667 59.178667 0 0 0 82.346667-47.701333l7.253333-65.109334a32 32 0 0 1 24.874667-27.690666c30.592-6.826667 61.824-10.410667 93.909333-10.794667zM512 384a128 128 0 1 0 0 256 128 128 0 0 0 0-256z"
          fill="#2c2c2c" p-id="5438" data-spm-anchor-id="a313x.search_index.0.i6.46613a81eamhOp"
          class="selected"></path>
</svg>