<svg t="1723806095969" class="icon" viewBox="0 0 1024 1024" version="1.1" xmlns="http://www.w3.org/2000/svg"
     p-id="99766" width="96" height="96">
    <path d="M557.568 1024l400.981333-169.898667c13.653333-6.656 22.784-16.725333 22.784-30.037333V487.594667L580.352 657.493333c-9.130667 3.328-13.653333 6.656-22.784 6.656V1024z m-91.136 0V664.149333c-9.130667-3.328-13.653333-3.328-22.784-6.656L42.666667 487.594667v336.469333c0 13.312 9.130667 23.381333 22.784 30.037333L466.432 1024z m469.333333-593.066667L534.784 261.034667a54.442667 54.442667 0 0 0-45.568 0L88.234667 430.848l400.981333 169.984c13.653333 6.656 31.914667 6.656 45.568 0l400.981333-169.898667z"
          fill="#2c2c2c" fill-opacity=".65" p-id="99767" data-spm-anchor-id="a313x.search_index.0.i38.a94c3a81No4fxR"
          class="selected"></path>
    <path d="M526.250667 73.301333l401.578666 162.133334L981.333333 201.386667 526.250667 10.325333 71.082667 201.386667l54.101333 34.816 401.066667-162.986667z m0 105.130667l401.578666 162.133333 53.504-34.048-455.082666-191.061333-455.168 191.146667L125.184 341.333333l401.066667-162.901333z"
          fill="#2c2c2c" fill-opacity=".65" p-id="99768" data-spm-anchor-id="a313x.search_index.0.i39.a94c3a81No4fxR"
          class="selected"></path>
</svg>